<svg xmlns="http://www.w3.org/2000/svg" viewBox="0 0 24 24"><path fill="#91cafe" d="m20.773,16.948c-.088-.264-.08-.539.023-.754.863-1.803,1.147-3.812.821-5.812-.665-4.068-3.964-7.36-8.024-8.005-3.165-.504-6.265.497-8.502,2.743-2.237,2.246-3.224,5.349-2.708,8.515.647,3.976,3.871,7.248,7.839,7.957.602.107,1.201.161,1.794.161,1.74,0,3.424-.461,4.945-1.364.181-.107.462-.221.778-.171l2.318.386c.438.073.869-.085,1.156-.421s.375-.787.235-1.207l-.675-2.027Z"/><circle cx="12" cy="12" r="1.25" fill="#494249"/><circle cx="8" cy="12" r="1.25" fill="#494249"/><circle cx="16" cy="12" r="1.25" fill="#494249"/><path fill="#494249" d="m20.773,16.948c-.088-.264-.08-.539.023-.754.863-1.803,1.147-3.812.821-5.812-.665-4.068-3.964-7.36-8.024-8.005-3.165-.504-6.265.497-8.502,2.743-2.237,2.246-3.224,5.349-2.708,8.515.647,3.976,3.871,7.248,7.839,7.957.602.107,1.201.161,1.794.161,1.74,0,3.424-.461,4.945-1.364.181-.107.462-.221.778-.171l2.318.386c.438.073.869-.085,1.156-.421s.375-.787.235-1.207l-.675-2.027Zm-1.33-1.402s0,0,0,0c-.273.571-.306,1.237-.093,1.876l.544,1.632-1.909-.318c-.594-.099-1.231.03-1.791.361-1.725,1.023-3.699,1.373-5.709,1.016-3.352-.599-6.075-3.362-6.622-6.721-.438-2.685.398-5.314,2.291-7.215,1.571-1.578,3.646-2.428,5.842-2.428.45,0,.905.036,1.362.108,3.43.545,6.217,3.327,6.779,6.766.277,1.695.037,3.397-.693,4.922Z"/></svg>